<svg version="1.2" xmlns="http://www.w3.org/2000/svg" viewBox="0 0 631.9360436181273 402.4933829316278" width="632" height="403">
	<defs>
		<clipPath clipPathUnits="userSpaceOnUse" id="cp1">
			<path d="m7.2 7.2h479.13v388.09h-479.13z"/>
		</clipPath>
		<clipPath clipPathUnits="userSpaceOnUse" id="cp2">
			<path d="m7.2 7.2h479.13v388.09h-479.13z"/>
		</clipPath>
		<clipPath clipPathUnits="userSpaceOnUse" id="cp3">
			<path d="m7.2 7.2h479.13v388.09h-479.13z"/>
		</clipPath>
		<clipPath clipPathUnits="userSpaceOnUse" id="cp4">
			<path d="m7.2 7.2h479.13v388.09h-479.13z"/>
		</clipPath>
		<clipPath clipPathUnits="userSpaceOnUse" id="cp5">
			<path d="m7.2 7.2h479.13v388.09h-479.13z"/>
		</clipPath>
		<clipPath clipPathUnits="userSpaceOnUse" id="cp6">
			<path d="m7.2 7.2h479.13v388.09h-479.13z"/>
		</clipPath>
		<clipPath clipPathUnits="userSpaceOnUse" id="cp7">
			<path d="m7.2 7.2h479.13v388.09h-479.13z"/>
		</clipPath>
		<clipPath clipPathUnits="userSpaceOnUse" id="cp8">
			<path d="m7.2 7.2h479.13v388.09h-479.13z"/>
		</clipPath>
		<clipPath clipPathUnits="userSpaceOnUse" id="cp9">
			<path d="m7.2 7.2h479.13v388.09h-479.13z"/>
		</clipPath>
		<clipPath clipPathUnits="userSpaceOnUse" id="cp10">
			<path d="m7.2 7.2h479.13v388.09h-479.13z"/>
		</clipPath>
		<clipPath clipPathUnits="userSpaceOnUse" id="cp11">
			<path d="m7.2 7.2h479.13v388.09h-479.13z"/>
		</clipPath>
		<clipPath clipPathUnits="userSpaceOnUse" id="cp12">
			<path d="m7.2 7.2h479.13v388.09h-479.13z"/>
		</clipPath>
		<clipPath clipPathUnits="userSpaceOnUse" id="cp13">
			<path d="m7.2 7.2h479.13v388.09h-479.13z"/>
		</clipPath>
		<clipPath clipPathUnits="userSpaceOnUse" id="cp14">
			<path d="m7.2 7.2h479.13v388.09h-479.13z"/>
		</clipPath>
		<clipPath clipPathUnits="userSpaceOnUse" id="cp15">
			<path d="m7.2 7.2h479.13v388.09h-479.13z"/>
		</clipPath>
		<clipPath clipPathUnits="userSpaceOnUse" id="cp16">
			<path d="m7.2 7.2h479.13v388.09h-479.13z"/>
		</clipPath>
		<clipPath clipPathUnits="userSpaceOnUse" id="cp17">
			<path d="m7.2 7.2h479.13v388.09h-479.13z"/>
		</clipPath>
		<clipPath clipPathUnits="userSpaceOnUse" id="cp18">
			<path d="m7.2 7.2h479.13v388.09h-479.13z"/>
		</clipPath>
		<clipPath clipPathUnits="userSpaceOnUse" id="cp19">
			<path d="m7.2 7.2h479.13v388.09h-479.13z"/>
		</clipPath>
		<clipPath clipPathUnits="userSpaceOnUse" id="cp20">
			<path d="m7.2 7.2h479.13v388.09h-479.13z"/>
		</clipPath>
		<clipPath clipPathUnits="userSpaceOnUse" id="cp21">
			<path d="m7.2 7.2h479.13v388.09h-479.13z"/>
		</clipPath>
		<clipPath clipPathUnits="userSpaceOnUse" id="cp22">
			<path d="m7.2 7.2h479.13v388.09h-479.13z"/>
		</clipPath>
		<clipPath clipPathUnits="userSpaceOnUse" id="cp23">
			<path d="m7.2 7.2h479.13v388.09h-479.13z"/>
		</clipPath>
		<clipPath clipPathUnits="userSpaceOnUse" id="cp24">
			<path d="m7.2 7.2h479.13v388.09h-479.13z"/>
		</clipPath>
		<clipPath clipPathUnits="userSpaceOnUse" id="cp25">
			<path d="m7.2 7.2h479.13v388.09h-479.13z"/>
		</clipPath>
		<clipPath clipPathUnits="userSpaceOnUse" id="cp26">
			<path d="m7.2 7.2h479.13v388.09h-479.13z"/>
		</clipPath>
		<clipPath clipPathUnits="userSpaceOnUse" id="cp27">
			<path d="m7.2 7.2h479.13v388.09h-479.13z"/>
		</clipPath>
		<clipPath clipPathUnits="userSpaceOnUse" id="cp28">
			<path d="m7.2 7.2h479.13v388.09h-479.13z"/>
		</clipPath>
		<clipPath clipPathUnits="userSpaceOnUse" id="cp29">
			<path d="m7.2 7.2h479.13v388.09h-479.13z"/>
		</clipPath>
		<clipPath clipPathUnits="userSpaceOnUse" id="cp30">
			<path d="m7.2 7.2h479.13v388.09h-479.13z"/>
		</clipPath>
		<clipPath clipPathUnits="userSpaceOnUse" id="cp31">
			<path d="m7.2 7.2h479.13v388.09h-479.13z"/>
		</clipPath>
		<clipPath clipPathUnits="userSpaceOnUse" id="cp32">
			<path d="m7.2 7.2h479.13v388.09h-479.13z"/>
		</clipPath>
		<clipPath clipPathUnits="userSpaceOnUse" id="cp33">
			<path d="m7.2 7.2h479.13v388.09h-479.13z"/>
		</clipPath>
		<clipPath clipPathUnits="userSpaceOnUse" id="cp34">
			<path d="m7.2 7.2h479.13v388.09h-479.13z"/>
		</clipPath>
		<clipPath clipPathUnits="userSpaceOnUse" id="cp35">
			<path d="m7.2 7.2h479.13v388.09h-479.13z"/>
		</clipPath>
		<clipPath clipPathUnits="userSpaceOnUse" id="cp36">
			<path d="m7.2 7.2h479.13v388.09h-479.13z"/>
		</clipPath>
		<clipPath clipPathUnits="userSpaceOnUse" id="cp37">
			<path d="m7.2 7.2h479.13v388.09h-479.13z"/>
		</clipPath>
		<clipPath clipPathUnits="userSpaceOnUse" id="cp38">
			<path d="m7.2 7.2h479.13v388.09h-479.13z"/>
		</clipPath>
		<clipPath clipPathUnits="userSpaceOnUse" id="cp39">
			<path d="m7.2 7.2h479.13v388.09h-479.13z"/>
		</clipPath>
		<clipPath clipPathUnits="userSpaceOnUse" id="cp40">
			<path d="m7.2 7.2h479.13v388.09h-479.13z"/>
		</clipPath>
		<clipPath clipPathUnits="userSpaceOnUse" id="cp41">
			<path d="m7.2 7.2h479.13v388.09h-479.13z"/>
		</clipPath>
		<clipPath clipPathUnits="userSpaceOnUse" id="cp42">
			<path d="m7.2 7.2h479.13v388.09h-479.13z"/>
		</clipPath>
		<clipPath clipPathUnits="userSpaceOnUse" id="cp43">
			<path d="m7.2 7.2h479.13v388.09h-479.13z"/>
		</clipPath>
		<clipPath clipPathUnits="userSpaceOnUse" id="cp44">
			<path d="m7.2 7.2h479.13v388.09h-479.13z"/>
		</clipPath>
		<clipPath clipPathUnits="userSpaceOnUse" id="cp45">
			<path d="m7.2 7.2h479.13v388.09h-479.13z"/>
		</clipPath>
		<clipPath clipPathUnits="userSpaceOnUse" id="cp46">
			<path d="m7.2 7.2h479.13v388.09h-479.13z"/>
		</clipPath>
		<clipPath clipPathUnits="userSpaceOnUse" id="cp47">
			<path d="m7.2 7.2h479.13v388.09h-479.13z"/>
		</clipPath>
		<clipPath clipPathUnits="userSpaceOnUse" id="cp48">
			<path d="m7.2 7.2h479.13v388.09h-479.13z"/>
		</clipPath>
		<clipPath clipPathUnits="userSpaceOnUse" id="cp49">
			<path d="m7.2 7.2h479.13v388.09h-479.13z"/>
		</clipPath>
		<clipPath clipPathUnits="userSpaceOnUse" id="cp50">
			<path d="m7.2 7.2h479.13v388.09h-479.13z"/>
		</clipPath>
		<clipPath clipPathUnits="userSpaceOnUse" id="cp51">
			<path d="m7.2 7.2h479.13v388.09h-479.13z"/>
		</clipPath>
		<clipPath clipPathUnits="userSpaceOnUse" id="cp52">
			<path d="m7.2 7.2h479.13v388.09h-479.13z"/>
		</clipPath>
		<clipPath clipPathUnits="userSpaceOnUse" id="cp53">
			<path d="m7.2 7.2h479.13v388.09h-479.13z"/>
		</clipPath>
		<clipPath clipPathUnits="userSpaceOnUse" id="cp54">
			<path d="m7.2 7.2h479.13v388.09h-479.13z"/>
		</clipPath>
		<clipPath clipPathUnits="userSpaceOnUse" id="cp55">
			<path d="m7.2 7.2h479.13v388.09h-479.13z"/>
		</clipPath>
		<clipPath clipPathUnits="userSpaceOnUse" id="cp56">
			<path d="m7.2 7.2h479.13v388.09h-479.13z"/>
		</clipPath>
		<clipPath clipPathUnits="userSpaceOnUse" id="cp57">
			<path d="m7.2 7.2h479.13v388.09h-479.13z"/>
		</clipPath>
		<clipPath clipPathUnits="userSpaceOnUse" id="cp58">
			<path d="m7.2 7.2h479.13v388.09h-479.13z"/>
		</clipPath>
		<clipPath clipPathUnits="userSpaceOnUse" id="cp59">
			<path d="m7.2 7.2h479.13v388.09h-479.13z"/>
		</clipPath>
		<clipPath clipPathUnits="userSpaceOnUse" id="cp60">
			<path d="m7.2 7.2h479.13v388.09h-479.13z"/>
		</clipPath>
		<clipPath clipPathUnits="userSpaceOnUse" id="cp61">
			<path d="m7.2 7.2h479.13v388.09h-479.13z"/>
		</clipPath>
		<clipPath clipPathUnits="userSpaceOnUse" id="cp62">
			<path d="m7.2 7.2h479.13v388.09h-479.13z"/>
		</clipPath>
		<clipPath clipPathUnits="userSpaceOnUse" id="cp63">
			<path d="m7.2 7.2h479.13v388.09h-479.13z"/>
		</clipPath>
		<clipPath clipPathUnits="userSpaceOnUse" id="cp64">
			<path d="m7.2 7.2h479.13v388.09h-479.13z"/>
		</clipPath>
		<clipPath clipPathUnits="userSpaceOnUse" id="cp65">
			<path d="m7.2 7.2h479.13v388.09h-479.13z"/>
		</clipPath>
		<clipPath clipPathUnits="userSpaceOnUse" id="cp66">
			<path d="m7.2 7.2h479.13v388.09h-479.13z"/>
		</clipPath>
		<clipPath clipPathUnits="userSpaceOnUse" id="cp67">
			<path d="m7.2 7.2h479.13v388.09h-479.13z"/>
		</clipPath>
		<clipPath clipPathUnits="userSpaceOnUse" id="cp68">
			<path d="m7.2 7.2h479.13v388.09h-479.13z"/>
		</clipPath>
		<clipPath clipPathUnits="userSpaceOnUse" id="cp69">
			<path d="m7.2 7.2h479.13v388.09h-479.13z"/>
		</clipPath>
		<clipPath clipPathUnits="userSpaceOnUse" id="cp70">
			<path d="m7.2 7.2h479.13v388.09h-479.13z"/>
		</clipPath>
		<clipPath clipPathUnits="userSpaceOnUse" id="cp71">
			<path d="m7.2 7.2h479.13v388.09h-479.13z"/>
		</clipPath>
		<clipPath clipPathUnits="userSpaceOnUse" id="cp72">
			<path d="m7.2 7.2h479.13v388.09h-479.13z"/>
		</clipPath>
		<clipPath clipPathUnits="userSpaceOnUse" id="cp73">
			<path d="m7.2 7.2h479.13v388.09h-479.13z"/>
		</clipPath>
		<clipPath clipPathUnits="userSpaceOnUse" id="cp74">
			<path d="m7.2 7.2h479.13v388.09h-479.13z"/>
		</clipPath>
		<clipPath clipPathUnits="userSpaceOnUse" id="cp75">
			<path d="m7.2 7.2h479.13v388.09h-479.13z"/>
		</clipPath>
		<clipPath clipPathUnits="userSpaceOnUse" id="cp76">
			<path d="m7.2 7.2h479.13v388.09h-479.13z"/>
		</clipPath>
		<clipPath clipPathUnits="userSpaceOnUse" id="cp77">
			<path d="m7.2 7.2h479.13v388.09h-479.13z"/>
		</clipPath>
		<clipPath clipPathUnits="userSpaceOnUse" id="cp78">
			<path d="m7.2 7.2h479.13v388.09h-479.13z"/>
		</clipPath>
	</defs>
	<style>
		.s0 { fill: #ffffff } 
		.s1 { fill: #3d4148;stroke: #2e3136;stroke-width: .5 } 
		.s2 { fill: #dfe6ef;stroke: #a3b4c8;stroke-width: .4 } 
		.s3 { fill: #f8f6f1;stroke: #dad7d0;stroke-width: .4 } 
		.s4 { fill: #fceae2;stroke: #d9907a;stroke-width: .4 } 
		.s5 { fill: #f2efe7;stroke: #dad7d0;stroke-width: .4 } 
		.s6 { fill: none;stroke: #d9907a;stroke-linecap: round;stroke-width: 1.3 } 
		.s7 { fill: #b0b0b0 } 
		.s8 { opacity: .93;fill: #ffffff;stroke: #d5d2cb;stroke-width: .5 } 
		.s9 { fill: none;stroke: #2d9b65;stroke-linecap: square;stroke-width: 3 } 
		.s10 { fill: #2d9b65;stroke: #ffffff;stroke-width: 1.2 } 
		.s11 { fill: #000000 } 
		.s12 { fill: none;stroke: #d32f2f;stroke-linecap: square;stroke-width: 3 } 
		.s13 { fill: #d32f2f;stroke: #ffffff;stroke-width: 1.2 } 
		.s14 { fill: #f2efe7;stroke: #dad7d0;stroke-width: .5 } 
		.s15 { fill: #dfe6ef;stroke: #a3b4c8;stroke-width: .5 } 
		.s16 { fill: #fceae2;stroke: #d9907a;stroke-width: .5 } 
		.s17 { opacity: .88;fill: none;stroke: #2d9b65;stroke-width: 2.8 } 
		.s18 { opacity: .88;fill: none;stroke: #d32f2f;stroke-width: 2.8 } 
		.s19 { fill: #2d9b65;stroke: #2d9b65;stroke-width: 1 } 
		.s20 { fill: #d32f2f;stroke: #d32f2f;stroke-width: 1 } 
		.s21 { fill: #2d9b65;stroke: #ffffff;stroke-width: 1.5 } 
		.s22 { fill: #d32f2f;stroke: #ffffff;stroke-width: 1.5 } 
		.s23 { fill: #3a4a5c } 
		.s24 { fill: #2d9b65 } 
		.s25 { fill: #d32f2f } 
	</style>
	<g id="figure_1">
		<g id="patch_1">
			<path class="s0" d="m0 402.49h631.94v-402.49h-631.94z"/>
		</g>
		<g id="axes_1">
			<g id="patch_2">
				<g id="Clip-Path" clip-path="url(#cp1)">
					<path class="s1" d="m32.11 79.07h46q0.96 0 0.96-0.96v-46q0-0.95-0.96-0.95h-46q-0.95 0-0.95 0.95v46q0 0.96 0.95 0.96z"/>
				</g>
			</g>
			<g id="patch_3">
				<g id="Clip-Path" clip-path="url(#cp2)">
					<path class="s1" d="m80.03 79.07h45.99q0.96 0 0.96-0.96v-46q0-0.95-0.96-0.95h-45.99q-0.96 0-0.96 0.95v46q0 0.96 0.96 0.96z"/>
				</g>
			</g>
			<g id="patch_4">
				<g id="Clip-Path" clip-path="url(#cp3)">
					<path class="s1" d="m127.94 79.07h46q0.95 0 0.95-0.96v-46q0-0.95-0.95-0.95h-46q-0.96 0-0.96 0.95v46q0 0.96 0.96 0.96z"/>
				</g>
			</g>
			<g id="patch_5">
				<g id="Clip-Path" clip-path="url(#cp4)">
					<path class="s1" d="m175.85 79.07h46q0.96 0 0.96-0.96v-46q0-0.95-0.96-0.95h-46q-0.96 0-0.96 0.95v46q0 0.96 0.96 0.96z"/>
				</g>
			</g>
			<g id="patch_6">
				<g id="Clip-Path" clip-path="url(#cp5)">
					<path class="s1" d="m223.77 79.07h45.99q0.96 0 0.96-0.96v-46q0-0.95-0.96-0.95h-45.99q-0.96 0-0.96 0.95v46q0 0.96 0.96 0.96z"/>
				</g>
			</g>
			<g id="patch_7">
				<g id="Clip-Path" clip-path="url(#cp6)">
					<path class="s1" d="m271.68 79.07h45.99q0.96 0 0.96-0.96v-46q0-0.95-0.96-0.95h-45.99q-0.96 0-0.96 0.95v46q0 0.96 0.96 0.96z"/>
				</g>
			</g>
			<g id="patch_8">
				<g id="Clip-Path" clip-path="url(#cp7)">
					<path class="s1" d="m319.59 79.07h46q0.96 0 0.96-0.96v-46q0-0.95-0.96-0.95h-46q-0.96 0-0.96 0.95v46q0 0.96 0.96 0.96z"/>
				</g>
			</g>
			<g id="patch_9">
				<g id="Clip-Path" clip-path="url(#cp8)">
					<path class="s1" d="m367.5 79.07h46q0.96 0 0.96-0.96v-46q0-0.95-0.96-0.95h-46q-0.95 0-0.95 0.95v46q0 0.96 0.95 0.96z"/>
				</g>
			</g>
			<g id="patch_10">
				<g id="Clip-Path" clip-path="url(#cp9)">
					<path class="s1" d="m415.42 79.07h45.99q0.96 0 0.96-0.96v-46q0-0.95-0.96-0.95h-45.99q-0.96 0-0.96 0.95v46q0 0.96 0.96 0.96z"/>
				</g>
			</g>
			<g id="patch_11">
				<g id="Clip-Path" clip-path="url(#cp10)">
					<path class="s1" d="m32.11 126.98h46q0.96 0 0.96-0.96v-45.99q0-0.96-0.96-0.96h-46q-0.95 0-0.95 0.96v45.99q0 0.96 0.95 0.96z"/>
				</g>
			</g>
			<g id="patch_12">
				<g id="Clip-Path" clip-path="url(#cp11)">
					<path class="s2" d="m80.03 126.98h45.99q0.96 0 0.96-0.96v-45.99q0-0.96-0.96-0.96h-45.99q-0.96 0-0.96 0.96v45.99q0 0.96 0.96 0.96z"/>
				</g>
			</g>
			<g id="patch_13">
				<g id="Clip-Path" clip-path="url(#cp12)">
					<path class="s3" d="m127.94 126.98h46q0.95 0 0.95-0.96v-45.99q0-0.96-0.95-0.96h-46q-0.96 0-0.96 0.96v45.99q0 0.96 0.96 0.96z"/>
				</g>
			</g>
			<g id="patch_14">
				<g id="Clip-Path" clip-path="url(#cp13)">
					<path class="s3" d="m175.85 126.98h46q0.96 0 0.96-0.96v-45.99q0-0.96-0.96-0.96h-46q-0.96 0-0.96 0.96v45.99q0 0.96 0.96 0.96z"/>
				</g>
			</g>
			<g id="patch_15">
				<g id="Clip-Path" clip-path="url(#cp14)">
					<path class="s2" d="m223.77 126.98h45.99q0.96 0 0.96-0.96v-45.99q0-0.96-0.96-0.96h-45.99q-0.96 0-0.96 0.96v45.99q0 0.96 0.96 0.96z"/>
				</g>
			</g>
			<g id="patch_16">
				<g id="Clip-Path" clip-path="url(#cp15)">
					<path class="s3" d="m271.68 126.98h45.99q0.96 0 0.96-0.96v-45.99q0-0.96-0.96-0.96h-45.99q-0.96 0-0.96 0.96v45.99q0 0.96 0.96 0.96z"/>
				</g>
			</g>
			<g id="patch_17">
				<g id="Clip-Path" clip-path="url(#cp16)">
					<path class="s3" d="m319.59 126.98h46q0.96 0 0.96-0.96v-45.99q0-0.96-0.96-0.96h-46q-0.96 0-0.96 0.96v45.99q0 0.96 0.96 0.96z"/>
				</g>
			</g>
			<g id="patch_18">
				<g id="Clip-Path" clip-path="url(#cp17)">
					<path class="s2" d="m367.5 126.98h46q0.96 0 0.96-0.96v-45.99q0-0.96-0.96-0.96h-46q-0.95 0-0.95 0.96v45.99q0 0.96 0.95 0.96z"/>
				</g>
			</g>
			<g id="patch_19">
				<g id="Clip-Path" clip-path="url(#cp18)">
					<path class="s1" d="m415.42 126.98h45.99q0.96 0 0.96-0.96v-45.99q0-0.96-0.96-0.96h-45.99q-0.96 0-0.96 0.96v45.99q0 0.96 0.96 0.96z"/>
				</g>
			</g>
			<g id="patch_20">
				<g id="Clip-Path" clip-path="url(#cp19)">
					<path class="s1" d="m32.11 174.89h46q0.96 0 0.96-0.95v-46q0-0.96-0.96-0.96h-46q-0.95 0-0.95 0.96v46q0 0.95 0.95 0.95z"/>
				</g>
			</g>
			<g id="patch_21">
				<g id="Clip-Path" clip-path="url(#cp20)">
					<path class="s1" d="m80.03 174.89h45.99q0.96 0 0.96-0.95v-46q0-0.96-0.96-0.96h-45.99q-0.96 0-0.96 0.96v46q0 0.95 0.96 0.95z"/>
				</g>
			</g>
			<g id="patch_22">
				<g id="Clip-Path" clip-path="url(#cp21)">
					<path class="s4" d="m127.94 174.89h46q0.95 0 0.95-0.95v-46q0-0.96-0.95-0.96h-46q-0.96 0-0.96 0.96v46q0 0.95 0.96 0.95z"/>
				</g>
			</g>
			<g id="patch_23">
				<g id="Clip-Path" clip-path="url(#cp22)">
					<path class="s1" d="m175.85 174.89h46q0.96 0 0.96-0.95v-46q0-0.96-0.96-0.96h-46q-0.96 0-0.96 0.96v46q0 0.95 0.96 0.95z"/>
				</g>
			</g>
			<g id="patch_24">
				<g id="Clip-Path" clip-path="url(#cp23)">
					<path class="s4" d="m223.77 174.89h45.99q0.96 0 0.96-0.95v-46q0-0.96-0.96-0.96h-45.99q-0.96 0-0.96 0.96v46q0 0.95 0.96 0.95z"/>
				</g>
			</g>
			<g id="patch_25">
				<g id="Clip-Path" clip-path="url(#cp24)">
					<path class="s1" d="m271.68 174.89h45.99q0.96 0 0.96-0.95v-46q0-0.96-0.96-0.96h-45.99q-0.96 0-0.96 0.96v46q0 0.95 0.96 0.95z"/>
				</g>
			</g>
			<g id="patch_26">
				<g id="Clip-Path" clip-path="url(#cp25)">
					<path class="s4" d="m319.59 174.89h46q0.96 0 0.96-0.95v-46q0-0.96-0.96-0.96h-46q-0.96 0-0.96 0.96v46q0 0.95 0.96 0.95z"/>
				</g>
			</g>
			<g id="patch_27">
				<g id="Clip-Path" clip-path="url(#cp26)">
					<path class="s1" d="m367.5 174.89h46q0.96 0 0.96-0.95v-46q0-0.96-0.96-0.96h-46q-0.95 0-0.95 0.96v46q0 0.95 0.95 0.95z"/>
				</g>
			</g>
			<g id="patch_28">
				<g id="Clip-Path" clip-path="url(#cp27)">
					<path class="s1" d="m415.42 174.89h45.99q0.96 0 0.96-0.95v-46q0-0.96-0.96-0.96h-45.99q-0.96 0-0.96 0.96v46q0 0.95 0.96 0.95z"/>
				</g>
			</g>
			<g id="patch_29">
				<g id="Clip-Path" clip-path="url(#cp28)">
					<path class="s1" d="m32.11 222.81h46q0.96 0 0.96-0.96v-46q0-0.96-0.96-0.96h-46q-0.95 0-0.95 0.96v46q0 0.96 0.95 0.96z"/>
				</g>
			</g>
			<g id="patch_30">
				<g id="Clip-Path" clip-path="url(#cp29)">
					<path class="s3" d="m80.03 222.81h45.99q0.96 0 0.96-0.96v-46q0-0.96-0.96-0.96h-45.99q-0.96 0-0.96 0.96v46q0 0.96 0.96 0.96z"/>
				</g>
			</g>
			<g id="patch_31">
				<g id="Clip-Path" clip-path="url(#cp30)">
					<path class="s3" d="m127.94 222.81h46q0.95 0 0.95-0.96v-46q0-0.96-0.95-0.96h-46q-0.96 0-0.96 0.96v46q0 0.96 0.96 0.96z"/>
				</g>
			</g>
			<g id="patch_32">
				<g id="Clip-Path" clip-path="url(#cp31)">
					<path class="s3" d="m175.85 222.81h46q0.96 0 0.96-0.96v-46q0-0.96-0.96-0.96h-46q-0.96 0-0.96 0.96v46q0 0.96 0.96 0.96z"/>
				</g>
			</g>
			<g id="patch_33">
				<g id="Clip-Path" clip-path="url(#cp32)">
					<path class="s3" d="m223.77 222.81h45.99q0.96 0 0.96-0.96v-46q0-0.96-0.96-0.96h-45.99q-0.96 0-0.96 0.96v46q0 0.96 0.96 0.96z"/>
				</g>
			</g>
			<g id="patch_34">
				<g id="Clip-Path" clip-path="url(#cp33)">
					<path class="s3" d="m271.68 222.81h45.99q0.96 0 0.96-0.96v-46q0-0.96-0.96-0.96h-45.99q-0.96 0-0.96 0.96v46q0 0.96 0.96 0.96z"/>
				</g>
			</g>
			<g id="patch_35">
				<g id="Clip-Path" clip-path="url(#cp34)">
					<path class="s3" d="m319.59 222.81h46q0.96 0 0.96-0.96v-46q0-0.96-0.96-0.96h-46q-0.96 0-0.96 0.96v46q0 0.96 0.96 0.96z"/>
				</g>
			</g>
			<g id="patch_36">
				<g id="Clip-Path" clip-path="url(#cp35)">
					<path class="s3" d="m367.5 222.81h46q0.96 0 0.96-0.96v-46q0-0.96-0.96-0.96h-46q-0.95 0-0.95 0.96v46q0 0.96 0.95 0.96z"/>
				</g>
			</g>
			<g id="patch_37">
				<g id="Clip-Path" clip-path="url(#cp36)">
					<path class="s1" d="m415.42 222.81h45.99q0.96 0 0.96-0.96v-46q0-0.96-0.96-0.96h-45.99q-0.96 0-0.96 0.96v46q0 0.96 0.96 0.96z"/>
				</g>
			</g>
			<g id="patch_38">
				<g id="Clip-Path" clip-path="url(#cp37)">
					<path class="s1" d="m32.11 270.72h46q0.96 0 0.96-0.96v-45.99q0-0.96-0.96-0.96h-46q-0.95 0-0.95 0.96v45.99q0 0.96 0.95 0.96z"/>
				</g>
			</g>
			<g id="patch_39">
				<g id="Clip-Path" clip-path="url(#cp38)">
					<path class="s3" d="m80.03 270.72h45.99q0.96 0 0.96-0.96v-45.99q0-0.96-0.96-0.96h-45.99q-0.96 0-0.96 0.96v45.99q0 0.96 0.96 0.96z"/>
				</g>
			</g>
			<g id="patch_40">
				<g id="Clip-Path" clip-path="url(#cp39)">
					<path class="s5" d="m127.94 270.72h46q0.95 0 0.95-0.96v-45.99q0-0.96-0.95-0.96h-46q-0.96 0-0.96 0.96v45.99q0 0.96 0.96 0.96z"/>
				</g>
			</g>
			<g id="patch_41">
				<g id="Clip-Path" clip-path="url(#cp40)">
					<path class="s5" d="m175.85 270.72h46q0.96 0 0.96-0.96v-45.99q0-0.96-0.96-0.96h-46q-0.96 0-0.96 0.96v45.99q0 0.96 0.96 0.96z"/>
				</g>
			</g>
			<g id="patch_42">
				<g id="Clip-Path" clip-path="url(#cp41)">
					<path class="s5" d="m223.77 270.72h45.99q0.96 0 0.96-0.96v-45.99q0-0.96-0.96-0.96h-45.99q-0.96 0-0.96 0.96v45.99q0 0.96 0.96 0.96z"/>
				</g>
			</g>
			<g id="patch_43">
				<g id="Clip-Path" clip-path="url(#cp42)">
					<path class="s5" d="m271.68 270.72h45.99q0.96 0 0.96-0.96v-45.99q0-0.96-0.96-0.96h-45.99q-0.96 0-0.96 0.96v45.99q0 0.96 0.96 0.96z"/>
				</g>
			</g>
			<g id="patch_44">
				<g id="Clip-Path" clip-path="url(#cp43)">
					<path class="s5" d="m319.59 270.72h46q0.96 0 0.96-0.96v-45.99q0-0.96-0.96-0.96h-46q-0.96 0-0.96 0.96v45.99q0 0.96 0.96 0.96z"/>
				</g>
			</g>
			<g id="patch_45">
				<g id="Clip-Path" clip-path="url(#cp44)">
					<path class="s3" d="m367.5 270.72h46q0.96 0 0.96-0.96v-45.99q0-0.96-0.96-0.96h-46q-0.95 0-0.95 0.96v45.99q0 0.96 0.95 0.96z"/>
				</g>
			</g>
			<g id="patch_46">
				<g id="Clip-Path" clip-path="url(#cp45)">
					<path class="s1" d="m415.42 270.72h45.99q0.96 0 0.96-0.96v-45.99q0-0.96-0.96-0.96h-45.99q-0.96 0-0.96 0.96v45.99q0 0.96 0.96 0.96z"/>
				</g>
			</g>
			<g id="patch_47">
				<g id="Clip-Path" clip-path="url(#cp46)">
					<path class="s1" d="m32.11 318.63h46q0.96 0 0.96-0.96v-45.99q0-0.96-0.96-0.96h-46q-0.95 0-0.95 0.96v45.99q0 0.96 0.95 0.96z"/>
				</g>
			</g>
			<g id="patch_48">
				<g id="Clip-Path" clip-path="url(#cp47)">
					<path class="s3" d="m80.03 318.63h45.99q0.96 0 0.96-0.96v-45.99q0-0.96-0.96-0.96h-45.99q-0.96 0-0.96 0.96v45.99q0 0.96 0.96 0.96z"/>
				</g>
			</g>
			<g id="patch_49">
				<g id="Clip-Path" clip-path="url(#cp48)">
					<path class="s5" d="m127.94 318.63h46q0.95 0 0.95-0.96v-45.99q0-0.96-0.95-0.96h-46q-0.96 0-0.96 0.96v45.99q0 0.96 0.96 0.96z"/>
				</g>
			</g>
			<g id="patch_50">
				<g id="Clip-Path" clip-path="url(#cp49)">
					<path class="s5" d="m175.85 318.63h46q0.96 0 0.96-0.96v-45.99q0-0.96-0.96-0.96h-46q-0.96 0-0.96 0.96v45.99q0 0.96 0.96 0.96z"/>
				</g>
			</g>
			<g id="patch_51">
				<g id="Clip-Path" clip-path="url(#cp50)">
					<path class="s5" d="m223.77 318.63h45.99q0.96 0 0.96-0.96v-45.99q0-0.96-0.96-0.96h-45.99q-0.96 0-0.96 0.96v45.99q0 0.96 0.96 0.96z"/>
				</g>
			</g>
			<g id="patch_52">
				<g id="Clip-Path" clip-path="url(#cp51)">
					<path class="s5" d="m271.68 318.63h45.99q0.96 0 0.96-0.96v-45.99q0-0.96-0.96-0.96h-45.99q-0.96 0-0.96 0.96v45.99q0 0.96 0.96 0.96z"/>
				</g>
			</g>
			<g id="patch_53">
				<g id="Clip-Path" clip-path="url(#cp52)">
					<path class="s5" d="m319.59 318.63h46q0.96 0 0.96-0.96v-45.99q0-0.96-0.96-0.96h-46q-0.96 0-0.96 0.96v45.99q0 0.96 0.96 0.96z"/>
				</g>
			</g>
			<g id="patch_54">
				<g id="Clip-Path" clip-path="url(#cp53)">
					<path class="s3" d="m367.5 318.63h46q0.96 0 0.96-0.96v-45.99q0-0.96-0.96-0.96h-46q-0.95 0-0.95 0.96v45.99q0 0.96 0.95 0.96z"/>
				</g>
			</g>
			<g id="patch_55">
				<g id="Clip-Path" clip-path="url(#cp54)">
					<path class="s1" d="m415.42 318.63h45.99q0.96 0 0.96-0.96v-45.99q0-0.96-0.96-0.96h-45.99q-0.96 0-0.96 0.96v45.99q0 0.96 0.96 0.96z"/>
				</g>
			</g>
			<g id="patch_56">
				<g id="Clip-Path" clip-path="url(#cp55)">
					<path class="s1" d="m32.11 366.55h46q0.96 0 0.96-0.96v-46q0-0.96-0.96-0.96h-46q-0.95 0-0.95 0.96v46q0 0.96 0.95 0.96z"/>
				</g>
			</g>
			<g id="patch_57">
				<g id="Clip-Path" clip-path="url(#cp56)">
					<path class="s1" d="m80.03 366.55h45.99q0.96 0 0.96-0.96v-46q0-0.96-0.96-0.96h-45.99q-0.96 0-0.96 0.96v46q0 0.96 0.96 0.96z"/>
				</g>
			</g>
			<g id="patch_58">
				<g id="Clip-Path" clip-path="url(#cp57)">
					<path class="s1" d="m127.94 366.55h46q0.95 0 0.95-0.96v-46q0-0.96-0.95-0.96h-46q-0.96 0-0.96 0.96v46q0 0.96 0.96 0.96z"/>
				</g>
			</g>
			<g id="patch_59">
				<g id="Clip-Path" clip-path="url(#cp58)">
					<path class="s1" d="m175.85 366.55h46q0.96 0 0.96-0.96v-46q0-0.96-0.96-0.96h-46q-0.96 0-0.96 0.96v46q0 0.96 0.96 0.96z"/>
				</g>
			</g>
			<g id="patch_60">
				<g id="Clip-Path" clip-path="url(#cp59)">
					<path class="s1" d="m223.77 366.55h45.99q0.96 0 0.96-0.96v-46q0-0.96-0.96-0.96h-45.99q-0.96 0-0.96 0.96v46q0 0.96 0.96 0.96z"/>
				</g>
			</g>
			<g id="patch_61">
				<g id="Clip-Path" clip-path="url(#cp60)">
					<path class="s1" d="m271.68 366.55h45.99q0.96 0 0.96-0.96v-46q0-0.96-0.96-0.96h-45.99q-0.96 0-0.96 0.96v46q0 0.96 0.96 0.96z"/>
				</g>
			</g>
			<g id="patch_62">
				<g id="Clip-Path" clip-path="url(#cp61)">
					<path class="s1" d="m319.59 366.55h46q0.96 0 0.96-0.96v-46q0-0.96-0.96-0.96h-46q-0.96 0-0.96 0.96v46q0 0.96 0.96 0.96z"/>
				</g>
			</g>
			<g id="patch_63">
				<g id="Clip-Path" clip-path="url(#cp62)">
					<path class="s1" d="m367.5 366.55h46q0.96 0 0.96-0.96v-46q0-0.96-0.96-0.96h-46q-0.95 0-0.95 0.96v46q0 0.96 0.95 0.96z"/>
				</g>
			</g>
			<g id="patch_64">
				<g id="Clip-Path" clip-path="url(#cp63)">
					<path class="s1" d="m415.42 366.55h45.99q0.96 0 0.96-0.96v-46q0-0.96-0.96-0.96h-45.99q-0.96 0-0.96 0.96v46q0 0.96 0.96 0.96z"/>
				</g>
			</g>
			<g id="line2d_1">
				<g id="Clip-Path" clip-path="url(#cp64)">
					<path class="s6" d="m143.75 155.73l7.19-9.58 7.19 9.58"/>
				</g>
			</g>
			<g id="line2d_2">
				<g id="Clip-Path" clip-path="url(#cp65)">
					<path class="s6" d="m239.58 155.73l7.18-9.58 7.19 9.58"/>
				</g>
			</g>
			<g id="line2d_3">
				<g id="Clip-Path" clip-path="url(#cp66)">
					<path class="s6" d="m335.4 155.73l7.19-9.58 7.19 9.58"/>
				</g>
			</g>
			<g id="text_1">
				<g>
					<path id="FiraCode-Light-30" class="s7" d="m55.11 16.72q0.86 0 1.3 0.73 0.45 0.73 0.45 2.1 0 1.37-0.45 2.1-0.44 0.73-1.3 0.73-0.85 0-1.3-0.73-0.44-0.73-0.44-2.1 0-1.37 0.44-2.1 0.45-0.73 1.3-0.73zm0 0.44q-0.53 0-0.85 0.56-0.32 0.56-0.32 1.83 0 0.62 0.07 1.07 0.07 0.45 0.22 0.75 0.14 0.29 0.36 0.43 0.23 0.14 0.52 0.14 0.36 0 0.63-0.25 0.26-0.25 0.41-0.78 0.14-0.53 0.14-1.36 0-0.83-0.12-1.36-0.13-0.53-0.39-0.78-0.26-0.25-0.67-0.25zm0.87 0.2l0.13 0.55-1.83 3.7-0.21-0.44z"/>
				</g>
			</g>
			<g id="text_2">
				<g>
					<path id="FiraCode-Light-31" class="s7" d="m103.5 16.8v5.34h-0.51v-4.77l-1.3 0.79-0.22-0.37 1.6-0.99zm1.18 5.07v0.43h-3.05v-0.43z"/>
				</g>
			</g>
			<g id="text_3">
				<g>
					<path id="FiraCode-Light-32" class="s7" d="m150.68 16.72q0.49 0 0.84 0.2 0.35 0.2 0.55 0.54 0.19 0.34 0.19 0.79 0 0.39-0.13 0.77-0.14 0.37-0.44 0.78-0.3 0.41-0.78 0.91-0.48 0.49-1.18 1.13h2.66l-0.07 0.46h-3.15v-0.45q0.64-0.61 1.09-1.07 0.45-0.46 0.74-0.81 0.29-0.35 0.45-0.63 0.16-0.28 0.22-0.54 0.06-0.26 0.06-0.56 0-0.5-0.28-0.79-0.28-0.29-0.78-0.29-0.43 0-0.7 0.15-0.27 0.14-0.54 0.45l-0.37-0.29q0.33-0.39 0.71-0.57 0.38-0.18 0.91-0.18z"/>
				</g>
			</g>
			<g id="text_4">
				<g>
					<path id="FiraCode-Light-33" class="s7" d="m198.59 16.72q0.5 0 0.86 0.19 0.37 0.19 0.57 0.5 0.2 0.31 0.2 0.68 0 0.33-0.15 0.6-0.15 0.27-0.39 0.45-0.24 0.18-0.51 0.22 0.3 0.02 0.58 0.18 0.28 0.16 0.47 0.45 0.18 0.29 0.18 0.71 0 0.48-0.24 0.86-0.23 0.38-0.65 0.6-0.41 0.22-0.95 0.22-0.42 0-0.86-0.17-0.45-0.16-0.76-0.54l0.38-0.28q0.23 0.27 0.57 0.41 0.33 0.14 0.67 0.14 0.63 0 0.97-0.33 0.34-0.33 0.34-0.88 0-0.43-0.16-0.67-0.16-0.24-0.43-0.34-0.27-0.1-0.61-0.1h-0.45l0.07-0.43h0.31q0.27 0 0.53-0.11 0.25-0.11 0.42-0.34 0.16-0.23 0.16-0.58 0-0.5-0.33-0.76-0.33-0.26-0.78-0.26-0.37 0-0.63 0.13-0.27 0.12-0.56 0.39l-0.28-0.34q0.34-0.32 0.71-0.46 0.37-0.14 0.75-0.14z"/>
				</g>
			</g>
			<g id="text_5">
				<g>
					<path id="FiraCode-Light-34" class="s7" d="m246.64 16.72l0.41 0.2-1.51 3.57h2.99v0.41h-3.53v-0.38zm1.13 2.14v3.43h-0.48v-1.68l0.07-1.75z"/>
				</g>
			</g>
			<g id="text_6">
				<g>
					<path id="FiraCode-Light-35" class="s7" d="m296.1 16.8l-0.08 0.42h-2.22v1.9q0.26-0.14 0.49-0.2 0.23-0.05 0.5-0.05 0.45 0 0.79 0.2 0.33 0.19 0.51 0.58 0.19 0.38 0.19 0.93 0 0.54-0.22 0.95-0.22 0.4-0.61 0.63-0.4 0.22-0.94 0.22-0.47 0-0.84-0.16-0.36-0.17-0.69-0.46l0.32-0.32q0.27 0.25 0.57 0.38 0.3 0.12 0.67 0.12 0.58 0 0.9-0.35 0.31-0.35 0.31-1.05 0-0.47-0.14-0.74-0.15-0.27-0.39-0.38-0.24-0.12-0.53-0.12-0.27 0-0.47 0.05-0.19 0.05-0.45 0.13h-0.45v-2.68z"/>
				</g>
			</g>
			<g id="text_7">
				<g>
					<path id="FiraCode-Light-36" class="s7" d="m342.84 16.72q0.3 0 0.56 0.08 0.26 0.08 0.49 0.24l-0.2 0.36q-0.19-0.12-0.41-0.18-0.22-0.06-0.47-0.06-0.47 0-0.8 0.32-0.32 0.32-0.48 0.9-0.16 0.58-0.15 1.34l0.01 0.22q0 1.04 0.3 1.52 0.3 0.48 0.96 0.48 0.57 0 0.86-0.39 0.29-0.39 0.29-1.1 0-0.47-0.14-0.74-0.13-0.28-0.38-0.39-0.24-0.12-0.56-0.12-0.49 0-0.84 0.29-0.35 0.29-0.56 0.74l-0.02-0.53q0.28-0.51 0.63-0.73 0.35-0.22 0.82-0.22 0.43 0 0.78 0.18 0.36 0.18 0.57 0.56 0.22 0.37 0.22 0.96 0 0.63-0.24 1.06-0.23 0.42-0.61 0.65-0.38 0.22-0.82 0.22-0.48 0-0.82-0.19-0.34-0.18-0.54-0.53-0.21-0.35-0.3-0.85-0.1-0.51-0.1-1.15 0-0.9 0.23-1.56 0.23-0.66 0.67-1.02 0.43-0.36 1.05-0.36z"/>
				</g>
			</g>
			<g id="text_8">
				<g>
					<path id="FiraCode-Light-37" class="s7" d="m389.87 22.36l-0.46-0.14 2.17-4.98h-2.63v-0.44h3.13v0.41z"/>
				</g>
			</g>
			<g id="text_9">
				<g>
					<path id="FiraCode-Light-38" class="s7" d="m440.01 18.1q0 0.41-0.26 0.71-0.26 0.3-0.72 0.55 0.53 0.2 0.87 0.57 0.34 0.37 0.34 0.9 0 0.45-0.23 0.8-0.23 0.35-0.65 0.55-0.41 0.2-0.96 0.2-0.56 0-0.97-0.2-0.4-0.21-0.62-0.55-0.21-0.35-0.21-0.79 0-0.52 0.31-0.87 0.31-0.35 0.81-0.59-0.44-0.19-0.67-0.49-0.23-0.3-0.23-0.76 0-0.38 0.16-0.65 0.16-0.27 0.4-0.43 0.25-0.17 0.52-0.25 0.28-0.08 0.51-0.08 0.27 0 0.55 0.08 0.28 0.08 0.52 0.24 0.24 0.16 0.39 0.43 0.14 0.26 0.14 0.63zm-0.31 2.74q0-0.4-0.22-0.63-0.21-0.23-0.57-0.38-0.36-0.15-0.81-0.3-0.25 0.11-0.47 0.27-0.22 0.16-0.36 0.42-0.13 0.26-0.13 0.64 0 0.51 0.31 0.79 0.32 0.29 0.94 0.29 0.62 0 0.96-0.31 0.35-0.31 0.35-0.79zm-2.38-2.7q0 0.36 0.17 0.55 0.16 0.19 0.46 0.3 0.3 0.11 0.7 0.24 0.42-0.22 0.64-0.46 0.22-0.23 0.22-0.65 0-0.46-0.29-0.72-0.29-0.26-0.81-0.26-0.51 0-0.8 0.27-0.29 0.27-0.29 0.73z"/>
				</g>
			</g>
			<g id="text_10">
				<g>
					<path id="FiraCode-Light-30" class="s7" d="m18.22 51.65q0.86 0 1.3 0.73 0.44 0.73 0.44 2.1 0 1.37-0.44 2.1-0.44 0.73-1.3 0.73-0.86 0-1.3-0.73-0.45-0.73-0.45-2.1 0-1.37 0.45-2.1 0.44-0.73 1.3-0.73zm0 0.44q-0.54 0-0.86 0.56-0.32 0.56-0.32 1.83 0 0.62 0.07 1.07 0.07 0.45 0.22 0.74 0.15 0.3 0.37 0.44 0.22 0.14 0.52 0.14 0.36 0 0.62-0.25 0.27-0.25 0.41-0.78 0.15-0.53 0.15-1.36 0-0.83-0.13-1.36-0.13-0.53-0.39-0.78-0.26-0.25-0.66-0.25zm0.86 0.2l0.14 0.55-1.84 3.7-0.21-0.44z"/>
				</g>
			</g>
			<g id="text_11">
				<g>
					<path id="FiraCode-Light-31" class="s7" d="m18.69 99.64v5.34h-0.51v-4.76l-1.3 0.78-0.22-0.36 1.6-1zm1.18 5.07v0.43h-3.05v-0.43z"/>
				</g>
			</g>
			<g id="text_12">
				<g>
					<path id="FiraCode-Light-32" class="s7" d="m17.96 147.48q0.48 0 0.84 0.2 0.35 0.19 0.55 0.54 0.19 0.34 0.19 0.78 0 0.4-0.14 0.77-0.13 0.37-0.43 0.78-0.3 0.41-0.78 0.91-0.49 0.5-1.18 1.14h2.66l-0.07 0.45h-3.15v-0.44q0.64-0.62 1.09-1.08 0.45-0.46 0.74-0.8 0.28-0.35 0.44-0.63 0.16-0.29 0.23-0.55 0.06-0.26 0.06-0.55 0-0.5-0.28-0.79-0.29-0.29-0.78-0.29-0.43 0-0.7 0.14-0.27 0.14-0.55 0.46l-0.36-0.3q0.33-0.39 0.71-0.56 0.38-0.18 0.91-0.18z"/>
				</g>
			</g>
			<g id="text_13">
				<g>
					<path id="FiraCode-Light-33" class="s7" d="m17.96 195.39q0.49 0 0.86 0.19 0.36 0.18 0.57 0.49 0.2 0.31 0.2 0.69 0 0.32-0.15 0.6-0.15 0.27-0.39 0.45-0.24 0.17-0.52 0.22 0.31 0.01 0.59 0.17 0.28 0.16 0.46 0.46 0.18 0.29 0.18 0.71 0 0.48-0.23 0.86-0.23 0.38-0.65 0.6-0.42 0.21-0.96 0.21-0.41 0-0.86-0.16-0.44-0.16-0.75-0.54l0.37-0.28q0.24 0.27 0.57 0.41 0.34 0.14 0.68 0.14 0.62 0 0.96-0.33 0.35-0.33 0.35-0.88 0-0.43-0.16-0.67-0.16-0.24-0.44-0.34-0.27-0.11-0.6-0.11h-0.45l0.06-0.42h0.31q0.28 0 0.53-0.11 0.26-0.11 0.42-0.34 0.17-0.23 0.17-0.59 0-0.5-0.33-0.75-0.33-0.26-0.79-0.26-0.36 0-0.63 0.13-0.27 0.12-0.55 0.39l-0.29-0.34q0.35-0.32 0.72-0.46 0.37-0.14 0.75-0.14z"/>
				</g>
			</g>
			<g id="text_14">
				<g>
					<path id="FiraCode-Light-34" class="s7" d="m18.1 243.31l0.4 0.19-1.51 3.57h2.99v0.42h-3.52v-0.39zm1.12 2.14v3.43h-0.48v-1.68l0.08-1.75z"/>
				</g>
			</g>
			<g id="text_15">
				<g>
					<path id="FiraCode-Light-35" class="s7" d="m19.64 291.29l-0.08 0.43h-2.22v1.9q0.26-0.15 0.49-0.2 0.23-0.06 0.5-0.06 0.45 0 0.79 0.2 0.33 0.2 0.51 0.58 0.19 0.38 0.19 0.93 0 0.54-0.22 0.95-0.22 0.41-0.61 0.63-0.4 0.22-0.94 0.22-0.47 0-0.84-0.16-0.36-0.16-0.69-0.46l0.32-0.32q0.27 0.26 0.57 0.38 0.3 0.12 0.67 0.12 0.58 0 0.9-0.34 0.31-0.35 0.31-1.05 0-0.48-0.14-0.75-0.15-0.27-0.39-0.38-0.24-0.12-0.53-0.12-0.27 0-0.47 0.05-0.19 0.05-0.45 0.14h-0.45v-2.69z"/>
				</g>
			</g>
			<g id="text_16">
				<g>
					<path id="FiraCode-Light-36" class="s7" d="m18.46 339.13q0.31 0 0.57 0.08 0.26 0.08 0.49 0.23l-0.2 0.37q-0.2-0.12-0.42-0.18-0.22-0.06-0.46-0.06-0.48 0-0.8 0.32-0.32 0.32-0.48 0.9-0.16 0.57-0.16 1.34l0.01 0.22q0.01 1.04 0.3 1.52 0.3 0.47 0.96 0.47 0.57 0 0.86-0.39 0.29-0.39 0.29-1.09 0-0.48-0.13-0.75-0.14-0.27-0.38-0.38-0.25-0.12-0.57-0.12-0.48 0-0.83 0.29-0.35 0.29-0.56 0.74l-0.02-0.54q0.27-0.5 0.63-0.72 0.35-0.22 0.82-0.22 0.42 0 0.78 0.18 0.35 0.18 0.57 0.55 0.21 0.38 0.21 0.97 0 0.62-0.23 1.05-0.23 0.43-0.61 0.65-0.38 0.22-0.82 0.22-0.49 0-0.82-0.18-0.34-0.18-0.55-0.53-0.2-0.35-0.3-0.86-0.09-0.5-0.09-1.14 0-0.91 0.23-1.56 0.23-0.66 0.66-1.02 0.44-0.36 1.05-0.36z"/>
				</g>
			</g>
			<g id="legend_1">
				<g id="patch_65">
					<path class="s8" d="m500.41 239.09h124.33v-75.69h-124.33z"/>
				</g>
				<g id="line2d_4">
					<path class="s9" d="m506.71 173.44h9 9"/>
					<g>
						<path id="mb82192d528" class="s10" d="m512.71 176.44h6v-6h-6z"/>
					</g>
				</g>
				<g id="text_17">
					<g>
						<path id="NotoSans-Regular-4e" class="s11" d="m537.88 176.59h-0.95l-3.44-5.34h-0.03q0.02 0.32 0.04 0.78 0.03 0.47 0.03 0.97v3.59h-0.75v-6.43h0.94l3.43 5.32h0.03q-0.01-0.14-0.02-0.43-0.01-0.29-0.03-0.63-0.01-0.34-0.01-0.63v-3.63h0.76z"/>
						<path id="NotoSans-Regular-6f" class="s11" d="m543.71 174.17q0 1.19-0.61 1.85-0.61 0.66-1.64 0.66-0.64 0-1.14-0.29-0.5-0.3-0.79-0.86-0.29-0.56-0.29-1.36 0-1.2 0.61-1.85 0.6-0.65 1.63-0.65 0.66 0 1.16 0.3 0.5 0.29 0.78 0.84 0.29 0.56 0.29 1.36zm-3.65 0q0 0.85 0.34 1.35 0.34 0.5 1.08 0.5 0.72 0 1.07-0.5 0.34-0.5 0.34-1.35 0-0.86-0.34-1.34-0.35-0.49-1.08-0.49-0.74 0-1.07 0.49-0.34 0.48-0.34 1.34z"/>
						<path id="NotoSans-Regular-6e" class="s11" d="m547.28 171.67q0.86 0 1.3 0.42 0.45 0.42 0.45 1.36v3.14h-0.79v-3.09q0-1.16-1.08-1.16-0.8 0-1.1 0.45-0.31 0.45-0.31 1.3v2.5h-0.79v-4.83h0.64l0.11 0.66h0.05q0.23-0.38 0.65-0.56 0.41-0.19 0.87-0.19z"/>
						<path id="NotoSans-Regular-2d" class="s11" d="m550.11 174.53v-0.71h2.18v0.71z"/>
						<path id="NotoSans-Regular-63" class="s11" d="m555.35 176.68q-0.64 0-1.14-0.26-0.5-0.26-0.78-0.81-0.28-0.55-0.28-1.41 0-0.89 0.29-1.45 0.3-0.55 0.81-0.81 0.51-0.27 1.16-0.27 0.37 0 0.71 0.08 0.34 0.08 0.56 0.18l-0.25 0.66q-0.21-0.08-0.5-0.15-0.29-0.07-0.54-0.07-1.42 0-1.42 1.82 0 0.88 0.34 1.34 0.35 0.46 1.03 0.46 0.4 0 0.7-0.08 0.3-0.08 0.55-0.2v0.71q-0.24 0.12-0.53 0.19-0.29 0.07-0.71 0.07z"/>
						<path id="NotoSans-Regular-6f" class="s11" d="m561.93 174.17q0 1.19-0.61 1.85-0.6 0.66-1.64 0.66-0.64 0-1.14-0.29-0.5-0.3-0.78-0.86-0.29-0.56-0.29-1.36 0-1.2 0.6-1.85 0.6-0.65 1.64-0.65 0.66 0 1.15 0.3 0.5 0.29 0.79 0.84 0.28 0.56 0.28 1.36zm-3.64 0q0 0.85 0.33 1.35 0.34 0.5 1.08 0.5 0.73 0 1.07-0.5 0.34-0.5 0.34-1.35 0-0.86-0.34-1.34-0.34-0.49-1.08-0.49-0.74 0-1.07 0.49-0.33 0.48-0.33 1.34z"/>
						<path id="NotoSans-Regular-6e" class="s11" d="m565.5 171.67q0.87 0 1.31 0.42 0.44 0.42 0.44 1.36v3.14h-0.78v-3.09q0-1.16-1.08-1.16-0.8 0-1.11 0.45-0.31 0.45-0.31 1.3v2.5h-0.79v-4.83h0.64l0.12 0.66h0.04q0.24-0.38 0.65-0.56 0.42-0.19 0.87-0.19z"/>
						<path id="NotoSans-Regular-66" class="s11" d="m570.97 172.38h-1.22v4.21h-0.79v-4.21h-0.85v-0.37l0.85-0.27v-0.28q0-0.94 0.41-1.35 0.42-0.41 1.16-0.41 0.28 0 0.52 0.05 0.24 0.05 0.41 0.11l-0.2 0.63q-0.15-0.05-0.34-0.09-0.19-0.05-0.38-0.05-0.4 0-0.6 0.27-0.19 0.26-0.19 0.83v0.31h1.22z"/>
						<path id="NotoSans-Regular-6c" class="s11" d="m572.63 176.59h-0.79v-6.84h0.79z"/>
						<path id="NotoSans-Regular-69" class="s11" d="m574.57 169.95q0.18 0 0.32 0.13 0.14 0.12 0.14 0.38 0 0.25-0.14 0.38-0.14 0.12-0.32 0.12-0.2 0-0.34-0.12-0.13-0.13-0.13-0.38 0-0.26 0.13-0.38 0.14-0.13 0.34-0.13zm0.38 1.81v4.83h-0.79v-4.83z"/>
						<path id="NotoSans-Regular-63" class="s11" d="m578.42 176.68q-0.64 0-1.14-0.26-0.5-0.26-0.78-0.81-0.29-0.55-0.29-1.41 0-0.89 0.3-1.45 0.3-0.55 0.81-0.81 0.51-0.27 1.15-0.27 0.37 0 0.71 0.08 0.35 0.08 0.56 0.18l-0.24 0.66q-0.22-0.08-0.51-0.15-0.28-0.07-0.53-0.07-1.43 0-1.43 1.82 0 0.88 0.35 1.34 0.35 0.46 1.03 0.46 0.4 0 0.7-0.08 0.3-0.08 0.55-0.2v0.71q-0.24 0.12-0.54 0.19-0.29 0.07-0.7 0.07z"/>
						<path id="NotoSans-Regular-74" class="s11" d="m582.41 176.03q0.18 0 0.37-0.03 0.19-0.03 0.31-0.07v0.6q-0.13 0.07-0.36 0.11-0.23 0.04-0.45 0.04-0.38 0-0.7-0.13-0.32-0.13-0.52-0.46-0.19-0.32-0.19-0.91v-2.8h-0.69v-0.38l0.7-0.32 0.31-1.02h0.47v1.1h1.39v0.62h-1.39v2.79q0 0.44 0.21 0.65 0.21 0.21 0.54 0.21z"/>
						<path id="NotoSans-Regular-69" class="s11" d="m584.46 169.95q0.18 0 0.32 0.13 0.14 0.12 0.14 0.38 0 0.25-0.14 0.38-0.14 0.12-0.32 0.12-0.2 0-0.34-0.12-0.13-0.13-0.13-0.38 0-0.26 0.13-0.38 0.14-0.13 0.34-0.13zm0.38 1.81v4.83h-0.79v-4.83z"/>
						<path id="NotoSans-Regular-6e" class="s11" d="m588.7 171.67q0.86 0 1.3 0.42 0.44 0.42 0.44 1.36v3.14h-0.78v-3.09q0-1.16-1.08-1.16-0.8 0-1.11 0.45-0.3 0.45-0.3 1.3v2.5h-0.8v-4.83h0.64l0.12 0.66h0.05q0.23-0.38 0.64-0.56 0.42-0.19 0.88-0.19z"/>
						<path id="NotoSans-Regular-67" class="s11" d="m593.65 171.67q0.47 0 0.85 0.18 0.39 0.18 0.66 0.55h0.04l0.11-0.64h0.63v4.91q0 1.03-0.53 1.56-0.52 0.52-1.63 0.52-1.06 0-1.74-0.31v-0.73q0.71 0.38 1.79 0.38 0.62 0 0.97-0.36 0.36-0.37 0.36-1v-0.19q0-0.11 0.01-0.31 0.01-0.2 0.01-0.28h-0.03q-0.49 0.73-1.5 0.73-0.93 0-1.46-0.66-0.52-0.66-0.52-1.84 0-1.15 0.52-1.83 0.53-0.68 1.46-0.68zm0.1 0.67q-0.6 0-0.93 0.48-0.34 0.48-0.34 1.37 0 0.89 0.33 1.37 0.33 0.47 0.96 0.47 0.73 0 1.06-0.39 0.34-0.39 0.34-1.27v-0.19q0-0.99-0.35-1.41-0.34-0.43-1.07-0.43z"/>
						<path id="NotoSans-Regular-20" class="s11" d=""/>
						<path id="NotoSans-Regular-70" class="s11" d="m602.11 171.67q0.89 0 1.43 0.63 0.55 0.62 0.55 1.87 0 1.23-0.55 1.87-0.54 0.64-1.44 0.64-0.56 0-0.93-0.21-0.36-0.22-0.57-0.49h-0.05q0.02 0.15 0.03 0.38 0.02 0.24 0.02 0.41v1.98h-0.79v-6.99h0.65l0.11 0.66h0.03q0.22-0.31 0.57-0.53 0.35-0.22 0.94-0.22zm-0.15 0.67q-0.74 0-1.04 0.41-0.3 0.42-0.32 1.26v0.16q0 0.89 0.29 1.37 0.3 0.48 1.09 0.48 0.44 0 0.72-0.24 0.29-0.25 0.43-0.66 0.14-0.42 0.14-0.96 0-0.83-0.32-1.33-0.32-0.49-0.99-0.49z"/>
						<path id="NotoSans-Regular-61" class="s11" d="m607.17 171.68q0.88 0 1.31 0.39 0.42 0.39 0.42 1.23v3.29h-0.58l-0.15-0.69h-0.03q-0.32 0.4-0.67 0.59-0.34 0.19-0.95 0.19-0.66 0-1.09-0.35-0.44-0.35-0.44-1.08 0-0.72 0.57-1.11 0.57-0.4 1.75-0.43l0.82-0.03v-0.29q0-0.6-0.26-0.83-0.27-0.24-0.74-0.24-0.38 0-0.72 0.11-0.34 0.12-0.64 0.26l-0.24-0.59q0.31-0.17 0.74-0.29 0.43-0.13 0.9-0.13zm0.24 2.58q-0.9 0.03-1.25 0.28-0.35 0.26-0.35 0.72 0 0.4 0.25 0.59 0.25 0.19 0.64 0.19 0.61 0 1.01-0.34 0.41-0.34 0.41-1.04v-0.43z"/>
						<path id="NotoSans-Regular-74" class="s11" d="m612.01 176.03q0.18 0 0.36-0.03 0.19-0.03 0.31-0.07v0.6q-0.13 0.07-0.36 0.11-0.23 0.04-0.45 0.04-0.38 0-0.7-0.13-0.32-0.13-0.52-0.46-0.19-0.32-0.19-0.91v-2.8h-0.69v-0.38l0.7-0.32 0.31-1.02h0.47v1.1h1.39v0.62h-1.39v2.79q0 0.44 0.21 0.65 0.21 0.21 0.55 0.21z"/>
						<path id="NotoSans-Regular-68" class="s11" d="m614.43 171.75q0 0.36-0.04 0.68h0.05q0.24-0.37 0.64-0.56 0.4-0.19 0.87-0.19 0.88 0 1.32 0.42 0.44 0.42 0.44 1.35v3.14h-0.78v-3.09q0-1.16-1.08-1.16-0.81 0-1.11 0.46-0.31 0.45-0.31 1.29v2.5h-0.79v-6.84h0.79z"/>
					</g>
				</g>
				<g id="line2d_5">
					<path class="s12" d="m506.71 186.98h9 9"/>
					<g>
						<path id="md20354081e" class="s13" d="m512.71 189.98h6v-6h-6z"/>
					</g>
				</g>
				<g id="text_18">
					<g>
						<path id="NotoSans-Regular-43" class="s11" d="m535.54 184.33q-1.04 0-1.63 0.69-0.6 0.69-0.6 1.9 0 1.2 0.56 1.89 0.55 0.7 1.66 0.7 0.42 0 0.8-0.07 0.38-0.07 0.74-0.18v0.7q-0.36 0.14-0.75 0.2-0.38 0.06-0.91 0.06-0.98 0-1.64-0.4-0.65-0.41-0.98-1.15-0.33-0.75-0.33-1.76 0-0.97 0.35-1.71 0.36-0.75 1.05-1.16 0.7-0.42 1.69-0.42 1.01 0 1.77 0.37l-0.33 0.69q-0.29-0.14-0.66-0.24-0.36-0.11-0.79-0.11z"/>
						<path id="NotoSans-Regular-6f" class="s11" d="m542.55 187.71q0 1.2-0.6 1.86-0.61 0.65-1.65 0.65-0.63 0-1.13-0.29-0.5-0.29-0.79-0.86-0.29-0.56-0.29-1.36 0-1.2 0.6-1.84 0.61-0.65 1.64-0.65 0.66 0 1.16 0.29 0.5 0.29 0.78 0.85 0.28 0.55 0.28 1.35zm-3.64 0q0 0.86 0.34 1.36 0.33 0.5 1.07 0.5 0.73 0 1.07-0.5 0.35-0.5 0.35-1.36 0-0.85-0.35-1.34-0.34-0.49-1.08-0.49-0.73 0-1.07 0.49-0.33 0.49-0.33 1.34z"/>
						<path id="NotoSans-Regular-6e" class="s11" d="m546.13 185.22q0.86 0 1.3 0.42 0.44 0.42 0.44 1.35v3.14h-0.78v-3.08q0-1.17-1.08-1.17-0.8 0-1.11 0.45-0.3 0.45-0.3 1.3v2.5h-0.79v-4.82h0.63l0.12 0.66h0.05q0.23-0.38 0.64-0.57 0.42-0.18 0.88-0.18z"/>
						<path id="NotoSans-Regular-66" class="s11" d="m551.59 185.92h-1.21v4.21h-0.8v-4.21h-0.84v-0.37l0.84-0.27v-0.28q0-0.93 0.42-1.34 0.41-0.41 1.15-0.41 0.29 0 0.53 0.05 0.23 0.05 0.41 0.11l-0.21 0.62q-0.15-0.04-0.34-0.09-0.18-0.04-0.38-0.04-0.4 0-0.59 0.26-0.19 0.27-0.19 0.83v0.32h1.21z"/>
						<path id="NotoSans-Regular-6c" class="s11" d="m553.26 190.13h-0.8v-6.84h0.8z"/>
						<path id="NotoSans-Regular-69" class="s11" d="m555.19 183.5q0.18 0 0.32 0.12 0.14 0.12 0.14 0.38 0 0.26-0.14 0.38-0.14 0.13-0.32 0.13-0.2 0-0.33-0.13-0.14-0.12-0.14-0.38 0-0.26 0.14-0.38 0.13-0.12 0.33-0.12zm0.39 1.81v4.82h-0.79v-4.82z"/>
						<path id="NotoSans-Regular-63" class="s11" d="m559.04 190.22q-0.64 0-1.14-0.26-0.5-0.26-0.78-0.81-0.28-0.55-0.28-1.4 0-0.89 0.29-1.45 0.3-0.56 0.81-0.82 0.51-0.26 1.16-0.26 0.37 0 0.71 0.07 0.34 0.08 0.56 0.19l-0.25 0.66q-0.21-0.08-0.5-0.16-0.29-0.07-0.54-0.07-1.42 0-1.42 1.83 0 0.87 0.34 1.33 0.35 0.47 1.03 0.47 0.4 0 0.7-0.08 0.3-0.08 0.55-0.2v0.7q-0.24 0.13-0.53 0.19-0.29 0.07-0.71 0.07z"/>
						<path id="NotoSans-Regular-74" class="s11" d="m563.04 189.57q0.18 0 0.37-0.03 0.19-0.03 0.3-0.06v0.6q-0.12 0.06-0.36 0.1-0.23 0.04-0.45 0.04-0.37 0-0.69-0.13-0.32-0.13-0.52-0.45-0.2-0.33-0.2-0.91v-2.81h-0.68v-0.38l0.69-0.31 0.31-1.03h0.47v1.11h1.4v0.61h-1.4v2.79q0 0.44 0.21 0.65 0.22 0.21 0.55 0.21z"/>
						<path id="NotoSans-Regular-69" class="s11" d="m565.08 183.5q0.18 0 0.32 0.12 0.14 0.12 0.14 0.38 0 0.26-0.14 0.38-0.14 0.13-0.32 0.13-0.2 0-0.33-0.13-0.14-0.12-0.14-0.38 0-0.26 0.14-0.38 0.13-0.12 0.33-0.12zm0.39 1.81v4.82h-0.79v-4.82z"/>
						<path id="NotoSans-Regular-6e" class="s11" d="m569.32 185.22q0.86 0 1.3 0.42 0.45 0.42 0.45 1.35v3.14h-0.79v-3.08q0-1.17-1.08-1.17-0.8 0-1.11 0.45-0.3 0.45-0.3 1.3v2.5h-0.79v-4.82h0.64l0.11 0.66h0.05q0.23-0.38 0.65-0.57 0.41-0.18 0.87-0.18z"/>
						<path id="NotoSans-Regular-67" class="s11" d="m574.27 185.22q0.48 0 0.86 0.18 0.38 0.18 0.65 0.55h0.05l0.1-0.64h0.63v4.9q0 1.04-0.52 1.56-0.53 0.52-1.64 0.52-1.06 0-1.73-0.3v-0.73q0.71 0.38 1.78 0.38 0.62 0 0.98-0.37 0.35-0.36 0.35-0.99v-0.19q0-0.11 0.01-0.31 0.01-0.21 0.02-0.29h-0.04q-0.48 0.73-1.49 0.73-0.94 0-1.46-0.65-0.53-0.66-0.53-1.84 0-1.15 0.53-1.83 0.52-0.68 1.45-0.68zm0.11 0.66q-0.61 0-0.94 0.49-0.33 0.48-0.33 1.37 0 0.89 0.33 1.36 0.33 0.47 0.96 0.47 0.72 0 1.06-0.39 0.33-0.39 0.33-1.26v-0.19q0-0.99-0.34-1.42-0.34-0.43-1.07-0.43z"/>
						<path id="NotoSans-Regular-20" class="s11" d=""/>
						<path id="NotoSans-Regular-70" class="s11" d="m582.73 185.22q0.89 0 1.44 0.62 0.54 0.62 0.54 1.87 0 1.23-0.54 1.87-0.55 0.64-1.45 0.64-0.56 0-0.92-0.21-0.37-0.21-0.57-0.49h-0.06q0.02 0.15 0.04 0.39 0.02 0.23 0.02 0.4v1.98h-0.8v-6.98h0.65l0.11 0.66h0.04q0.21-0.32 0.56-0.53 0.35-0.22 0.94-0.22zm-0.14 0.66q-0.74 0-1.04 0.42-0.31 0.41-0.32 1.26v0.15q0 0.89 0.29 1.37 0.29 0.49 1.08 0.49 0.44 0 0.73-0.25 0.28-0.24 0.42-0.66 0.14-0.42 0.14-0.96 0-0.83-0.32-1.32-0.32-0.5-0.98-0.5z"/>
						<path id="NotoSans-Regular-61" class="s11" d="m587.8 185.23q0.88 0 1.3 0.38 0.42 0.39 0.42 1.24v3.28h-0.57l-0.15-0.68h-0.04q-0.32 0.39-0.66 0.58-0.35 0.19-0.96 0.19-0.66 0-1.09-0.34-0.43-0.35-0.43-1.09 0-0.72 0.56-1.11 0.57-0.39 1.75-0.43l0.82-0.02v-0.29q0-0.61-0.26-0.84-0.26-0.23-0.74-0.23-0.38 0-0.72 0.11-0.34 0.11-0.64 0.26l-0.24-0.6q0.31-0.17 0.75-0.29 0.43-0.12 0.9-0.12zm0.23 2.57q-0.9 0.04-1.25 0.29-0.34 0.25-0.34 0.71 0 0.41 0.24 0.6 0.25 0.18 0.64 0.18 0.61 0 1.02-0.33 0.4-0.34 0.4-1.04v-0.44z"/>
						<path id="NotoSans-Regular-74" class="s11" d="m592.63 189.57q0.18 0 0.37-0.03 0.19-0.03 0.3-0.06v0.6q-0.12 0.06-0.36 0.1-0.23 0.04-0.45 0.04-0.37 0-0.69-0.13-0.32-0.13-0.52-0.45-0.2-0.33-0.2-0.91v-2.81h-0.68v-0.38l0.69-0.31 0.31-1.03h0.47v1.11h1.4v0.61h-1.4v2.79q0 0.44 0.21 0.65 0.22 0.21 0.55 0.21z"/>
						<path id="NotoSans-Regular-68" class="s11" d="m595.06 185.3q0 0.36-0.05 0.67h0.06q0.23-0.36 0.63-0.55 0.4-0.19 0.87-0.19 0.88 0 1.32 0.42 0.44 0.41 0.44 1.34v3.14h-0.78v-3.08q0-1.17-1.08-1.17-0.81 0-1.11 0.46-0.3 0.45-0.3 1.3v2.49h-0.79v-6.84h0.79z"/>
					</g>
				</g>
				<g id="patch_66">
					<path class="s14" d="m506.71 203.63h18v-6.3h-18z"/>
				</g>
				<g id="text_19">
					<g>
						<path id="NotoSans-Regular-53" class="s11" d="m536.43 201.91q0 0.86-0.62 1.33-0.62 0.48-1.68 0.48-0.54 0-1-0.08-0.46-0.08-0.76-0.22v-0.78q0.32 0.15 0.8 0.26 0.49 0.12 1 0.12 0.72 0 1.08-0.28 0.37-0.28 0.37-0.76 0-0.31-0.14-0.53-0.13-0.21-0.46-0.4-0.33-0.18-0.91-0.39-0.82-0.29-1.24-0.73-0.42-0.43-0.42-1.18 0-0.51 0.26-0.87 0.26-0.37 0.72-0.57 0.47-0.19 1.07-0.19 0.53 0 0.97 0.1 0.44 0.09 0.8 0.26l-0.25 0.69q-0.33-0.14-0.72-0.24-0.39-0.1-0.82-0.1-0.6 0-0.91 0.25-0.3 0.26-0.3 0.68 0 0.33 0.13 0.54 0.14 0.22 0.44 0.39 0.31 0.17 0.83 0.37 0.57 0.21 0.96 0.44 0.39 0.24 0.59 0.58 0.21 0.33 0.21 0.83z"/>
						<path id="NotoSans-Regular-70" class="s11" d="m539.91 198.72q0.89 0 1.44 0.62 0.54 0.62 0.54 1.87 0 1.23-0.54 1.87-0.55 0.64-1.45 0.64-0.56 0-0.92-0.21-0.37-0.21-0.57-0.49h-0.06q0.02 0.15 0.04 0.39 0.02 0.23 0.02 0.4v1.98h-0.8v-6.98h0.65l0.11 0.66h0.04q0.21-0.32 0.56-0.54 0.35-0.21 0.94-0.21zm-0.14 0.66q-0.74 0-1.04 0.42-0.31 0.41-0.32 1.26v0.15q0 0.89 0.29 1.37 0.29 0.48 1.08 0.48 0.44 0 0.73-0.24 0.28-0.24 0.42-0.66 0.14-0.42 0.14-0.96 0-0.83-0.32-1.32-0.32-0.5-0.98-0.5z"/>
						<path id="NotoSans-Regular-61" class="s11" d="m544.98 198.73q0.88 0 1.3 0.38 0.42 0.39 0.42 1.24v3.28h-0.57l-0.15-0.68h-0.04q-0.32 0.39-0.66 0.58-0.35 0.19-0.96 0.19-0.66 0-1.09-0.34-0.43-0.35-0.43-1.09 0-0.72 0.56-1.11 0.57-0.39 1.75-0.43l0.82-0.03v-0.28q0-0.61-0.26-0.84-0.26-0.23-0.74-0.23-0.38 0-0.72 0.11-0.34 0.11-0.64 0.26l-0.24-0.6q0.31-0.17 0.75-0.29 0.43-0.12 0.9-0.12zm0.23 2.57q-0.9 0.04-1.25 0.29-0.34 0.25-0.34 0.71 0 0.4 0.25 0.59 0.24 0.19 0.63 0.19 0.61 0 1.02-0.33 0.4-0.34 0.4-1.04v-0.44z"/>
						<path id="NotoSans-Regular-77" class="s11" d="m551.31 200.9q-0.12-0.36-0.2-0.72-0.09-0.35-0.13-0.55h-0.04q-0.03 0.2-0.12 0.55-0.08 0.36-0.2 0.73l-0.87 2.71h-0.9l-1.32-4.82h0.82l0.67 2.57q0.1 0.39 0.19 0.79 0.09 0.39 0.12 0.65h0.04q0.03-0.15 0.08-0.38 0.05-0.22 0.12-0.47 0.06-0.25 0.12-0.44l0.86-2.72h0.86l0.83 2.72q0.1 0.3 0.19 0.66 0.1 0.36 0.13 0.62h0.04q0.03-0.22 0.12-0.62 0.09-0.39 0.2-0.81l0.68-2.57h0.81l-1.34 4.82h-0.93z"/>
						<path id="NotoSans-Regular-6e" class="s11" d="m557.59 198.72q0.87 0 1.31 0.42 0.44 0.42 0.44 1.35v3.14h-0.78v-3.08q0-1.17-1.08-1.17-0.8 0-1.11 0.45-0.31 0.45-0.31 1.3v2.5h-0.79v-4.82h0.64l0.12 0.66h0.04q0.24-0.38 0.65-0.57 0.41-0.18 0.87-0.18z"/>
						<path id="NotoSans-Regular-20" class="s11" d=""/>
						<path id="NotoSans-Regular-7a" class="s11" d="m566.29 203.63h-3.53v-0.52l2.59-3.69h-2.44v-0.61h3.31v0.59l-2.55 3.62h2.62z"/>
						<path id="NotoSans-Regular-6f" class="s11" d="m571.6 201.21q0 1.2-0.61 1.85-0.61 0.66-1.64 0.66-0.64 0-1.14-0.29-0.5-0.29-0.79-0.86-0.29-0.56-0.29-1.36 0-1.2 0.61-1.84 0.6-0.65 1.63-0.65 0.66 0 1.16 0.29 0.5 0.29 0.78 0.85 0.29 0.55 0.29 1.35zm-3.65 0q0 0.86 0.34 1.36 0.34 0.49 1.07 0.49 0.73 0 1.08-0.49 0.34-0.5 0.34-1.36 0-0.85-0.34-1.34-0.35-0.49-1.08-0.49-0.74 0-1.08 0.49-0.33 0.49-0.33 1.34z"/>
						<path id="NotoSans-Regular-6e" class="s11" d="m575.17 198.72q0.86 0 1.3 0.42 0.45 0.42 0.45 1.35v3.14h-0.79v-3.08q0-1.17-1.08-1.17-0.8 0-1.11 0.45-0.3 0.45-0.3 1.3v2.5h-0.79v-4.82h0.64l0.11 0.66h0.05q0.23-0.38 0.65-0.57 0.41-0.18 0.87-0.18z"/>
						<path id="NotoSans-Regular-65" class="s11" d="m580.27 198.72q0.62 0 1.07 0.27 0.44 0.27 0.68 0.76 0.24 0.49 0.24 1.15v0.47h-3.3q0.02 0.82 0.42 1.25 0.4 0.43 1.12 0.43 0.46 0 0.81-0.09 0.36-0.08 0.74-0.25v0.7q-0.37 0.16-0.73 0.23-0.36 0.08-0.86 0.08-0.68 0-1.21-0.28-0.53-0.28-0.82-0.83-0.29-0.55-0.29-1.35 0-0.8 0.27-1.36 0.26-0.57 0.74-0.88 0.48-0.3 1.12-0.3zm-0.01 0.65q-0.56 0-0.89 0.36-0.33 0.37-0.39 1.01h2.45q-0.01-0.61-0.29-0.99-0.27-0.38-0.88-0.38z"/>
					</g>
				</g>
				<g id="patch_67">
					<path class="s15" d="m506.71 217.13h18v-6.3h-18z"/>
				</g>
				<g id="text_20">
					<g>
						<path id="NotoSans-Regular-47" class="s11" d="m535.57 213.74h2.23v3.15q-0.53 0.17-1.06 0.25-0.53 0.08-1.2 0.08-1 0-1.69-0.4-0.68-0.4-1.04-1.14-0.35-0.75-0.35-1.76 0-1.01 0.39-1.75 0.4-0.74 1.14-1.14 0.75-0.42 1.8-0.42 0.54 0 1.02 0.1 0.48 0.1 0.9 0.28l-0.31 0.7q-0.34-0.15-0.77-0.26-0.43-0.1-0.89-0.1-1.15 0-1.79 0.69-0.65 0.69-0.65 1.9 0 0.76 0.25 1.35 0.25 0.59 0.78 0.92 0.53 0.33 1.4 0.33 0.42 0 0.71-0.05 0.3-0.04 0.55-0.1v-1.91h-1.42z"/>
						<path id="NotoSans-Regular-6f" class="s11" d="m543.42 214.71q0 1.2-0.61 1.85-0.61 0.66-1.64 0.66-0.64 0-1.14-0.29-0.5-0.29-0.79-0.86-0.28-0.56-0.28-1.36 0-1.2 0.6-1.84 0.6-0.65 1.64-0.65 0.65 0 1.15 0.29 0.5 0.29 0.78 0.85 0.29 0.55 0.29 1.35zm-3.65 0q0 0.85 0.34 1.36 0.34 0.49 1.08 0.49 0.73 0 1.07-0.49 0.34-0.51 0.34-1.36 0-0.86-0.34-1.34-0.34-0.49-1.08-0.49-0.74 0-1.07 0.49-0.34 0.48-0.34 1.34z"/>
						<path id="NotoSans-Regular-61" class="s11" d="m546.5 212.23q0.88 0 1.3 0.38 0.43 0.39 0.43 1.24v3.28h-0.58l-0.15-0.68h-0.04q-0.31 0.39-0.66 0.58-0.35 0.19-0.96 0.19-0.66 0-1.09-0.35-0.43-0.34-0.43-1.08 0-0.72 0.57-1.11 0.56-0.39 1.74-0.43l0.82-0.03v-0.28q0-0.61-0.26-0.84-0.26-0.24-0.74-0.24-0.38 0-0.72 0.12-0.34 0.11-0.64 0.25l-0.24-0.59q0.32-0.17 0.75-0.29 0.43-0.12 0.9-0.12zm0.23 2.57q-0.9 0.04-1.25 0.29-0.34 0.25-0.34 0.71 0 0.4 0.25 0.59 0.24 0.19 0.63 0.19 0.61 0 1.02-0.34 0.4-0.33 0.4-1.04v-0.43z"/>
						<path id="NotoSans-Regular-6c" class="s11" d="m550.51 217.13h-0.79v-6.84h0.79z"/>
						<path id="NotoSans-Regular-20" class="s11" d=""/>
						<path id="NotoSans-Regular-7a" class="s11" d="m557.49 217.13h-3.52v-0.52l2.59-3.69h-2.44v-0.61h3.31v0.59l-2.55 3.62h2.61z"/>
						<path id="NotoSans-Regular-6f" class="s11" d="m562.8 214.71q0 1.2-0.6 1.85-0.61 0.66-1.65 0.66-0.63 0-1.13-0.29-0.5-0.29-0.79-0.86-0.29-0.56-0.29-1.36 0-1.2 0.6-1.84 0.61-0.65 1.64-0.65 0.66 0 1.16 0.29 0.5 0.29 0.78 0.85 0.28 0.55 0.28 1.35zm-3.64 0q0 0.85 0.34 1.36 0.33 0.49 1.07 0.49 0.73 0 1.07-0.49 0.35-0.51 0.35-1.36 0-0.86-0.35-1.34-0.34-0.49-1.08-0.49-0.73 0-1.07 0.49-0.33 0.48-0.33 1.34z"/>
						<path id="NotoSans-Regular-6e" class="s11" d="m566.38 212.22q0.86 0 1.3 0.42 0.44 0.41 0.44 1.35v3.14h-0.78v-3.09q0-1.16-1.08-1.16-0.8 0-1.11 0.45-0.3 0.45-0.3 1.3v2.5h-0.79v-4.82h0.63l0.12 0.65h0.05q0.23-0.37 0.64-0.56 0.42-0.18 0.88-0.18z"/>
						<path id="NotoSans-Regular-65" class="s11" d="m571.48 212.22q0.62 0 1.07 0.27 0.44 0.27 0.68 0.76 0.24 0.49 0.24 1.14v0.48h-3.3q0.01 0.82 0.41 1.25 0.41 0.43 1.13 0.43 0.45 0 0.81-0.09 0.36-0.09 0.73-0.25v0.7q-0.37 0.16-0.73 0.23-0.36 0.08-0.85 0.08-0.68 0-1.21-0.28-0.53-0.28-0.82-0.83-0.29-0.55-0.29-1.36 0-0.79 0.26-1.35 0.27-0.57 0.75-0.88 0.48-0.3 1.12-0.3zm-0.01 0.64q-0.57 0-0.9 0.37-0.32 0.36-0.39 1.01h2.46q-0.01-0.61-0.29-0.99-0.28-0.39-0.88-0.39z"/>
					</g>
				</g>
				<g id="patch_68">
					<path class="s16" d="m506.71 230.63h18v-6.3h-18z"/>
				</g>
				<g id="text_21">
					<g>
						<path id="NotoSans-Regular-42" class="s11" d="m534.62 224.2q1.2 0 1.82 0.36 0.62 0.36 0.62 1.24 0 0.56-0.32 0.94-0.31 0.37-0.91 0.48v0.04q0.41 0.07 0.74 0.24 0.33 0.17 0.51 0.48 0.19 0.32 0.19 0.82 0 0.88-0.6 1.35-0.59 0.48-1.63 0.48h-2.26v-6.43zm0.17 2.74q0.82 0 1.13-0.27 0.31-0.26 0.31-0.78 0-0.53-0.38-0.76-0.37-0.23-1.19-0.23h-1.06v2.04zm-1.19 0.68v2.33h1.29q0.86 0 1.19-0.34 0.34-0.33 0.34-0.87 0-0.5-0.35-0.81-0.35-0.31-1.24-0.31z"/>
						<path id="NotoSans-Regular-6f" class="s11" d="m542.72 228.21q0 1.2-0.61 1.85-0.61 0.66-1.64 0.66-0.64 0-1.14-0.29-0.5-0.29-0.79-0.86-0.29-0.56-0.29-1.36 0-1.2 0.61-1.84 0.6-0.65 1.64-0.65 0.65 0 1.15 0.29 0.5 0.29 0.78 0.85 0.29 0.55 0.29 1.35zm-3.65 0q0 0.85 0.34 1.35 0.34 0.5 1.08 0.5 0.73 0 1.07-0.5 0.34-0.5 0.34-1.35 0-0.86-0.34-1.34-0.34-0.49-1.08-0.49-0.74 0-1.07 0.49-0.34 0.48-0.34 1.34z"/>
						<path id="NotoSans-Regular-74" class="s11" d="m545.58 230.07q0.18 0 0.37-0.03 0.19-0.03 0.3-0.07v0.61q-0.12 0.06-0.36 0.1-0.23 0.04-0.45 0.04-0.37 0-0.69-0.13-0.32-0.13-0.52-0.45-0.2-0.33-0.2-0.91v-2.81h-0.68v-0.38l0.69-0.31 0.32-1.03h0.46v1.11h1.4v0.61h-1.4v2.79q0 0.44 0.21 0.65 0.22 0.21 0.55 0.21z"/>
						<path id="NotoSans-Regular-74" class="s11" d="m548.83 230.07q0.18 0 0.37-0.03 0.19-0.03 0.3-0.07v0.61q-0.12 0.06-0.36 0.1-0.23 0.04-0.45 0.04-0.37 0-0.7-0.13-0.31-0.13-0.51-0.45-0.2-0.33-0.2-0.91v-2.81h-0.68v-0.38l0.69-0.31 0.31-1.03h0.47v1.11h1.4v0.61h-1.4v2.79q0 0.44 0.21 0.65 0.22 0.21 0.55 0.21z"/>
						<path id="NotoSans-Regular-6c" class="s11" d="m551.26 230.63h-0.79v-6.84h0.79z"/>
						<path id="NotoSans-Regular-65" class="s11" d="m554.65 225.72q0.62 0 1.07 0.27 0.44 0.27 0.68 0.76 0.24 0.49 0.24 1.14v0.48h-3.3q0.01 0.82 0.42 1.25 0.4 0.43 1.12 0.43 0.45 0 0.81-0.09 0.36-0.09 0.73-0.25v0.7q-0.37 0.16-0.73 0.23-0.36 0.08-0.85 0.08-0.68 0-1.21-0.28-0.53-0.28-0.82-0.83-0.29-0.55-0.29-1.36 0-0.79 0.26-1.35 0.27-0.57 0.75-0.88 0.48-0.3 1.12-0.3zm-0.01 0.64q-0.57 0-0.89 0.37-0.33 0.36-0.4 1.01h2.46q-0.01-0.61-0.29-0.99-0.28-0.39-0.88-0.39z"/>
						<path id="NotoSans-Regular-6e" class="s11" d="m560.19 225.72q0.86 0 1.3 0.42 0.44 0.41 0.44 1.35v3.14h-0.78v-3.09q0-1.16-1.08-1.16-0.8 0-1.11 0.45-0.3 0.45-0.3 1.3v2.5h-0.8v-4.82h0.64l0.12 0.65h0.05q0.23-0.37 0.64-0.56 0.42-0.18 0.88-0.18z"/>
						<path id="NotoSans-Regular-65" class="s11" d="m565.29 225.72q0.62 0 1.06 0.27 0.45 0.27 0.69 0.76 0.24 0.49 0.24 1.14v0.48h-3.31q0.02 0.82 0.42 1.25 0.4 0.43 1.12 0.43 0.46 0 0.82-0.09 0.35-0.09 0.73-0.25v0.7q-0.37 0.16-0.73 0.23-0.36 0.08-0.85 0.08-0.69 0-1.21-0.28-0.53-0.28-0.82-0.83-0.29-0.55-0.29-1.36 0-0.79 0.26-1.35 0.27-0.57 0.75-0.88 0.48-0.3 1.12-0.3zm-0.01 0.64q-0.57 0-0.9 0.37-0.32 0.36-0.39 1.01h2.46q-0.01-0.61-0.29-0.99-0.28-0.39-0.88-0.39z"/>
						<path id="NotoSans-Regular-63" class="s11" d="m570.44 230.72q-0.64 0-1.14-0.26-0.5-0.26-0.79-0.81-0.28-0.55-0.28-1.4 0-0.9 0.3-1.45 0.29-0.56 0.8-0.82 0.51-0.26 1.16-0.26 0.37 0 0.71 0.07 0.34 0.08 0.56 0.19l-0.24 0.65q-0.22-0.08-0.51-0.15-0.29-0.07-0.54-0.07-1.42 0-1.42 1.83 0 0.87 0.35 1.33 0.34 0.47 1.03 0.47 0.39 0 0.69-0.08 0.31-0.09 0.56-0.2v0.7q-0.25 0.13-0.54 0.19-0.29 0.07-0.7 0.07z"/>
						<path id="NotoSans-Regular-6b" class="s11" d="m573.6 227.36q0 0.15-0.01 0.38-0.01 0.24-0.02 0.41h0.03q0.06-0.08 0.17-0.21 0.1-0.14 0.22-0.28 0.11-0.13 0.19-0.22l1.54-1.63h0.93l-1.96 2.06 2.09 2.76h-0.95l-1.68-2.25-0.55 0.48v1.77h-0.78v-6.84h0.78z"/>
					</g>
				</g>
			</g>
			<g id="line2d_6">
				<g id="Clip-Path" clip-path="url(#cp67)">
					<path class="s17" d="m202.68 290.84h-47.91v-191.65h-34.5"/>
				</g>
			</g>
			<g id="line2d_7">
				<g id="Clip-Path" clip-path="url(#cp68)">
					<path class="s17" d="m290.84 250.6h47.92v-143.74h34.49"/>
				</g>
			</g>
			<g id="line2d_8">
				<g id="Clip-Path" clip-path="url(#cp69)">
					<path class="s18" d="m198.85 246.76h47.91v-72.82"/>
				</g>
			</g>
			<g id="line2d_9">
				<g id="Clip-Path" clip-path="url(#cp70)">
					<path class="s18" d="m294.68 294.68h-47.92v-120.74"/>
				</g>
			</g>
			<g id="patch_69">
				<g id="Clip-Path" clip-path="url(#cp71)">
					<path class="s19" d="m106.86 99.19l18.21 7.19v-14.37z"/>
				</g>
			</g>
			<g id="patch_70">
				<g id="Clip-Path" clip-path="url(#cp72)">
					<path class="s19" d="m386.67 106.86l-18.21-7.19v14.38z"/>
				</g>
			</g>
			<g id="patch_71">
				<g id="Clip-Path" clip-path="url(#cp73)">
					<path class="s20" d="m246.76 160.52l-7.18 18.21h14.37z"/>
				</g>
			</g>
			<g id="patch_72">
				<g id="Clip-Path" clip-path="url(#cp74)">
					<path class="s20" d="m246.76 160.52l-7.18 18.21h14.37z"/>
				</g>
			</g>
			<g id="line2d_10">
				<g id="Clip-Path" clip-path="url(#cp75)">
					<g>
						<path id="mcdf3aad230" class="s21" d="m198.68 294.84h8v-8h-8z"/>
					</g>
				</g>
			</g>
			<g id="line2d_11">
				<g id="Clip-Path" clip-path="url(#cp76)">
					<g>
						<path id="mcdf3aad230" class="s21" d="m286.84 254.6h8v-8h-8z"/>
					</g>
				</g>
			</g>
			<g id="line2d_12">
				<g id="Clip-Path" clip-path="url(#cp77)">
					<g>
						<path id="mb55745b0ab" class="s22" d="m194.85 250.76h8v-8h-8z"/>
					</g>
				</g>
			</g>
			<g id="line2d_13">
				<g id="Clip-Path" clip-path="url(#cp78)">
					<g>
						<path id="mb55745b0ab" class="s22" d="m290.68 298.68h8v-8h-8z"/>
					</g>
				</g>
			</g>
			<g id="text_22">
				<g>
					<path id="NotoSans-Bold-4c" class="s23" d="m99.95 107.19v-11.43h2.41v9.43h4.64v2z"/>
				</g>
			</g>
			<g id="text_23">
				<g>
					<path id="NotoSans-Bold-43" class="s23" d="m247.96 97.62q-1.4 0-2.13 1.04-0.74 1.04-0.74 2.85 0 1.82 0.68 2.82 0.68 1 2.19 1 0.7 0 1.4-0.16 0.69-0.16 1.51-0.45v2.03q-0.76 0.31-1.49 0.45-0.74 0.15-1.65 0.15-1.76 0-2.9-0.73-1.15-0.73-1.69-2.05-0.54-1.32-0.54-3.08 0-1.73 0.62-3.06 0.62-1.32 1.82-2.08 1.19-0.75 2.92-0.75 0.84 0 1.7 0.22 0.85 0.21 1.64 0.58l-0.79 1.97q-0.64-0.3-1.28-0.53-0.65-0.22-1.27-0.22z"/>
				</g>
			</g>
			<g id="text_24">
				<g>
					<path id="NotoSans-Bold-52" class="s23" d="m389.99 95.76q2.34 0 3.45 0.85 1.11 0.85 1.11 2.58 0 0.78-0.3 1.37-0.29 0.58-0.78 0.99-0.49 0.4-1.05 0.66l3.36 4.98h-2.69l-2.72-4.39h-1.29v4.39h-2.42v-11.43zm-0.17 1.99h-0.74v3.08h0.79q1.2 0 1.72-0.4 0.52-0.4 0.52-1.18 0-0.82-0.56-1.16-0.55-0.34-1.73-0.34z"/>
				</g>
			</g>
			<g id="text_25">
				<g>
					<path id="DejaVuSans-Bold-2713" class="s24" d="m115.77 221.75q1.28 0 1.92 2.09 1.31 3.91 1.86 3.91 0.43 0 0.89-0.64 9.17-14.7 16.97-23.76 2.01-2.35 6.42-2.35 1.05 0 1.4 0.2 0.37 0.19 0.37 0.48 0 0.46-1.08 1.79-12.59 15.15-23.37 31.99-0.75 1.17-3.06 1.17-2.35 0-2.78-0.2-1.1-0.48-2.61-4.99-1.7-4.99-1.7-6.27 0-1.36 2.29-2.64 1.41-0.78 2.48-0.78z"/>
				</g>
			</g>
			<g id="text_26">
				<g>
					<path id="DejaVuSans-Bold-2713" class="s24" d="m356.67 219.32q1.25 0 1.88 2.04 1.28 3.84 1.83 3.84 0.41 0 0.86-0.63 8.98-14.39 16.62-23.27 1.98-2.3 6.29-2.3 1.02 0 1.37 0.19 0.36 0.19 0.36 0.47 0 0.45-1.05 1.76-12.34 14.83-22.89 31.33-0.74 1.14-3 1.14-2.3 0-2.72-0.19-1.08-0.47-2.55-4.89-1.67-4.89-1.67-6.14 0-1.34 2.24-2.58 1.38-0.77 2.43-0.77z"/>
				</g>
			</g>
			<g id="text_27">
				<g>
					<path id="DejaVuSans-Bold-2717" class="s25" d="m230.89 189.15q0.29 0 0.75 0.47 0.5 0.46 1.03 1.22 0.83-1.48 1.32-1.48 0.44 0 1.2 0.78 0.46 0.5 0.46 1.1 0 0.79-0.64 1.46-6.03 6.55-11.72 14.4 2.35 5.75 6.5 12.67 0.35 0.58 0.35 0.93 0 0.66-0.87 1.39l-0.93 0.64q0.12 0.35 0.12 0.93 0 0.87-0.64 1.33-0.75 0.52-1.1 0.52-0.75 0-1.34-0.75-3.48-4.46-7.19-10.49-4.98 6.49-11.42 17.33-0.93 1.57-3.13 1.57-1.04 0-1.16-1.22-1.48-0.82-1.48-2.58 0-2.32 0.32-3.22 0.14-0.41 0.93-1.62 5.91-9.22 12.53-16.93-3.55-8.41-4.71-12.96-0.26-1.02-0.26-1.31 0-0.4 0.52-1.16 0.56-0.75 1.02-0.75 0.44 0 1.11 0.84 0.26-0.49 0.63-0.84 0.53-0.47 1.34-0.47 0.92 0 1.21 0.87 1.57 4.87 4.12 9.28 4.12-5.33 10.03-11.25 0.69-0.7 1.1-0.7z"/>
				</g>
			</g>
		</g>
	</g>
</svg>